<?xml version="1.0" encoding="UTF-8"?>
<svg xmlns="http://www.w3.org/2000/svg" xmlns:se="https://standardebooks.org/vocab/1.0" height="590" version="1.1" viewBox="0 0 1400 589.99793" se:generated-from="b2bb48424bf2ac842a5158e8fa97ef257b96b851">
	<path d="M 511.65142,112.69311 C 493.96669,112.69311 486.20038,100.34187 486.20038,89.955596 486.20038,79.662896 493.96669,67.311656 511.65142,67.311656 520.63414,67.311656 526.80976,72.083726 526.80976,72.083726 L 534.29536,57.112526 C 534.29536,57.112526 525.68692,50.001206 508.93789,50.001206 487.04251,50.001206 467.1121,67.966646 467.1121,90.142736 467.1121,112.22526 487.13608,130.00356 508.93789,130.00356 525.68692,130.00356 534.29536,122.89224 534.29536,122.89224 L 526.80976,107.92104 C 526.80976,107.92104 520.63414,112.69311 511.65142,112.69311 Z"/>
	<path d="M 585.32303,51.404756 569.04185,51.404756 537.88304,128.60001 556.78418,128.60001 562.49195,113.16096 591.87293,113.16096 597.5807,128.60001 616.48184,128.60001 585.32303,51.404756 Z M 585.88445,97.721906 568.48043,97.721906 577.08887,75.265106 577.27601,75.265106 585.88445,97.721906 Z"/>
	<path d="M 641.99268,80.692166 642.17982,80.692166 672.87078,128.60001 690.46194,128.60001 690.46194,51.404756 672.87078,51.404756 672.87078,99.312596 672.68364,99.312596 641.99268,51.404756 624.40152,51.404756 624.40152,128.60001 641.99268,128.60001 641.99268,80.692166 Z"/>
	<path d="M 706.70642,51.404756 706.70642,128.60001 729.06965,128.60001 C 750.31004,128.60001 767.99477,112.50597 767.99477,89.955596 767.99477,67.498796 750.21647,51.404756 729.06965,51.404756 L 706.70642,51.404756 Z M 724.29758,112.88025 724.29758,67.124516 727.01111,67.124516 C 740.11091,67.124516 749.00006,77.136506 749.00006,90.049166 748.90649,102.96183 740.01734,112.88025 727.01111,112.88025 L 724.29758,112.88025 Z"/>
	<path d="M 798.37855,51.404756 780.78739,51.404756 780.78739,128.60001 798.37855,128.60001 798.37855,51.404756 Z"/>
	<path d="M 814.66251,51.404756 814.66251,128.60001 837.02574,128.60001 C 858.26613,128.60001 875.95086,112.50597 875.95086,89.955596 875.95086,67.498796 858.17256,51.404756 837.02574,51.404756 L 814.66251,51.404756 Z M 832.25367,112.88025 832.25367,67.124516 834.9672,67.124516 C 848.067,67.124516 856.95615,77.136506 856.95615,90.049166 856.86258,102.96183 847.97343,112.88025 834.9672,112.88025 L 832.25367,112.88025 Z"/>
	<path d="M 932.90854,51.404756 888.7435,51.404756 888.7435,128.60001 932.90854,128.60001 932.90854,113.16096 906.33466,113.16096 906.33466,97.628336 931.7857,97.628336 931.7857,82.189286 906.33466,82.189286 906.33466,66.843806 932.90854,66.843806 932.90854,51.404756 Z"/>
	<path d="M 529.37724,288.95001 539.76388,288.95001 564.04616,231.05151 549.168,231.05151 534.57056,269.08907 519.97312,231.05151 505.09496,231.05151 529.37724,288.95001 Z"/>
	<path d="M 566.44621,259.96567 C 566.44621,276.87905 578.51717,290.00271 595.64109,290.00271 612.27375,290.00271 624.76579,276.87905 624.76579,259.96567 624.76579,243.05229 611.71231,229.99881 595.64109,229.99881 579.71023,229.99881 566.44621,243.05229 566.44621,259.96567 Z M 580.69275,259.96567 C 580.69275,251.33353 585.46499,242.70139 595.64109,242.70139 605.88737,242.70139 610.51925,251.33353 610.51925,259.96567 610.51925,268.59781 606.16809,277.22995 595.64109,277.22995 584.83337,277.22995 580.69275,268.59781 580.69275,259.96567 Z"/>
	<path d="M 648.78128,231.05151 635.58744,231.05151 635.58744,288.95001 668.7124,288.95001 668.7124,277.37031 648.78128,277.37031 648.78128,231.05151 Z"/>
	<path d="M 672.8505,242.63121 686.60578,242.63121 686.60578,288.95001 699.79962,288.95001 699.79962,242.63121 713.5549,242.63121 713.5549,231.05151 672.8505,231.05151 672.8505,242.63121 Z"/>
	<path d="M 749.28497,231.05151 737.07365,231.05151 713.70371,288.95001 727.88007,288.95001 732.16105,277.37031 754.19757,277.37031 758.47855,288.95001 772.65491,288.95001 749.28497,231.05151 Z M 749.70605,265.79061 736.65257,265.79061 743.10913,248.94741 743.24949,248.94741 749.70605,265.79061 Z"/>
	<path d="M 793.03858,231.05151 779.84474,231.05151 779.84474,288.95001 793.03858,288.95001 793.03858,231.05151 Z"/>
	<path d="M 806.50185,231.05151 806.50185,288.95001 819.69569,288.95001 819.69569,266.07133 837.38105,288.95001 854.15407,288.95001 834.22295,265.01863 C 841.31113,262.77287 846.08337,256.94793 846.08337,248.24561 846.08337,236.87645 837.94249,231.05151 827.20495,231.05151 L 806.50185,231.05151 Z M 819.69569,256.73739 819.69569,241.57851 821.23965,241.57851 C 826.22243,241.57851 832.18773,241.92941 832.18773,249.15795 832.18773,256.38649 826.22243,256.73739 821.23965,256.73739 L 819.69569,256.73739 Z"/>
	<path d="M 894.93162,231.05151 861.80666,231.05151 861.80666,288.95001 894.93162,288.95001 894.93162,277.37031 875.0005,277.37031 875.0005,265.72043 894.08946,265.72043 894.08946,254.14073 875.0005,254.14073 875.0005,242.63121 894.93162,242.63121 894.93162,231.05151 Z"/>
	<path d="M 386.34427,508.42255 395.51394,508.42255 395.51394,539.29999 404.30933,539.29999 404.30933,508.42255 413.47899,508.42255 413.47899,500.70319 386.34427,500.70319 386.34427,508.42255 Z"/>
	<path d="M 430.44181,523.81448 442.88635,523.81448 442.88635,539.29999 451.68175,539.29999 451.68175,500.70319 442.88635,500.70319 442.88635,516.09512 430.44181,516.09512 430.44181,500.70319 421.64642,500.70319 421.64642,539.29999 430.44181,539.29999 430.44181,523.81448 Z"/>
	<path d="M 484.36471,500.70319 462.28266,500.70319 462.28266,539.29999 484.36471,539.29999 484.36471,531.58063 471.07806,531.58063 471.07806,523.81448 483.8033,523.81448 483.8033,516.09512 471.07806,516.09512 471.07806,508.42255 484.36471,508.42255 484.36471,500.70319 Z"/>
	<path d="M 544.12023,539.29999 552.91562,539.29999 549.45361,500.70319 540.09681,500.70319 531.53533,522.97237 522.97386,500.70319 513.61706,500.70319 510.15505,539.29999 518.95044,539.29999 520.77501,516.42261 521.00893,516.42261 528.91543,539.06607 534.15524,539.06607 542.06173,516.42261 542.29565,516.42261 544.12023,539.29999 Z"/>
	<path d="M 559.70804,519.9782 C 559.70804,531.25314 567.75488,540.00175 579.17018,540.00175 590.25799,540.00175 598.58554,531.25314 598.58554,519.9782 598.58554,508.70325 589.88372,500.00143 579.17018,500.00143 568.55021,500.00143 559.70804,508.70325 559.70804,519.9782 Z M 569.20519,519.9782 C 569.20519,514.22376 572.3865,508.46933 579.17018,508.46933 586.00064,508.46933 589.08839,514.22376 589.08839,519.9782 589.08839,525.73263 586.18778,531.48706 579.17018,531.48706 571.96544,531.48706 569.20519,525.73263 569.20519,519.9782 Z"/>
	<path d="M 607.46642,500.70319 607.46642,539.29999 618.64779,539.29999 C 629.26776,539.29999 638.10994,531.25314 638.10994,519.9782 638.10994,508.75004 629.22098,500.70319 618.64779,500.70319 L 607.46642,500.70319 Z M 616.26181,531.44028 616.26181,508.5629 617.61855,508.5629 C 624.16831,508.5629 628.61279,513.56879 628.61279,520.02498 628.566,526.48117 624.12152,531.44028 617.61855,531.44028 L 616.26181,531.44028 Z"/>
	<path d="M 669.08822,500.70319 647.00617,500.70319 647.00617,539.29999 669.08822,539.29999 669.08822,531.58063 655.80156,531.58063 655.80156,523.81448 668.52681,523.81448 668.52681,516.09512 655.80156,516.09512 655.80156,508.42255 669.08822,508.42255 669.08822,500.70319 Z"/>
	<path d="M 679.14453,500.70319 679.14453,539.29999 687.93993,539.29999 687.93993,524.0484 699.72949,539.29999 710.91087,539.29999 697.62421,523.34664 C 702.3494,521.84956 705.53071,517.96648 705.53071,512.16527 705.53071,504.58626 700.10377,500.70319 692.94581,500.70319 L 679.14453,500.70319 Z M 687.93993,517.82613 687.93993,507.72079 688.96917,507.72079 C 692.29084,507.72079 696.26748,507.95471 696.26748,512.77346 696.26748,517.59221 692.29084,517.82613 688.96917,517.82613 L 687.93993,517.82613 Z"/>
	<path d="M 726.47456,515.34658 726.56813,515.34658 741.91328,539.29999 750.70868,539.29999 750.70868,500.70319 741.91328,500.70319 741.91328,524.6566 741.81972,524.6566 726.47456,500.70319 717.67917,500.70319 717.67917,539.29999 726.47456,539.29999 726.47456,515.34658 Z"/>
	<path d="M 787.91869,500.70319 779.12329,500.70319 779.12329,539.29999 801.20534,539.29999 801.20534,531.58063 787.91869,531.58063 787.91869,500.70319 Z"/>
	<path d="M 819.32606,500.70319 810.53067,500.70319 810.53067,539.29999 819.32606,539.29999 819.32606,500.70319 Z"/>
	<path d="M 829.96793,500.70319 829.96793,539.29999 844.61132,539.29999 C 852.61138,539.29999 857.243,534.90229 857.243,528.53967 857.243,522.3174 853.82777,519.65071 849.00902,518.8086 852.2839,517.12437 853.82777,514.08341 853.82777,510.52783 853.82777,503.18274 848.58796,500.70319 841.94463,500.70319 L 829.96793,500.70319 Z M 838.76332,515.81442 838.76332,507.48687 839.46508,507.48687 C 843.30137,507.48687 845.31308,508.65647 845.31308,511.41672 845.31308,514.64482 843.25458,515.81442 839.46508,515.81442 L 838.76332,515.81442 Z M 838.76332,532.51631 838.76332,523.39343 841.52358,523.39343 C 845.68735,523.39343 847.97977,524.6566 847.97977,528.21218 847.97977,531.25314 845.68735,532.51631 841.52358,532.51631 L 838.76332,532.51631 Z"/>
	<path d="M 866.1268,500.70319 866.1268,539.29999 874.9222,539.29999 874.9222,524.0484 886.71176,539.29999 897.89314,539.29999 884.60648,523.34664 C 889.33167,521.84956 892.51298,517.96648 892.51298,512.16527 892.51298,504.58626 887.08604,500.70319 879.92808,500.70319 L 866.1268,500.70319 Z M 874.9222,517.82613 874.9222,507.72079 875.95144,507.72079 C 879.27311,507.72079 883.24975,507.95471 883.24975,512.77346 883.24975,517.59221 879.27311,517.82613 875.95144,517.82613 L 874.9222,517.82613 Z"/>
	<path d="M 924.26394,500.70319 916.12352,500.70319 900.54445,539.29999 909.99482,539.29999 912.84864,531.58063 927.53882,531.58063 930.39264,539.29999 939.84301,539.29999 924.26394,500.70319 Z M 924.54464,523.86127 915.84282,523.86127 920.14694,512.63311 920.24051,512.63311 924.54464,523.86127 Z"/>
	<path d="M 946.3028,500.70319 946.3028,539.29999 955.09819,539.29999 955.09819,524.0484 966.88776,539.29999 978.06913,539.29999 964.78248,523.34664 C 969.50766,521.84956 972.68897,517.96648 972.68897,512.16527 972.68897,504.58626 967.26203,500.70319 960.10408,500.70319 L 946.3028,500.70319 Z M 955.09819,517.82613 955.09819,507.72079 956.12744,507.72079 C 959.4491,507.72079 963.42574,507.95471 963.42574,512.77346 963.42574,517.59221 959.4491,517.82613 956.12744,517.82613 L 955.09819,517.82613 Z"/>
	<path d="M 976.4236,500.70319 990.64593,521.98991 990.64593,539.29999 999.44133,539.29999 999.44133,521.98991 1013.6637,500.70319 1003.0905,500.70319 995.04363,513.05416 986.99678,500.70319 976.4236,500.70319 Z"/>
	<path d="M 594.74274,455.60187 C 594.74274,456.7921 597.25071,455.85692 597.25071,456.74959 597.25071,457.8973 595.46538,464.7836 595.46538,468.69434 595.46538,472.00996 597.03817,472.69009 598.18589,472.69009 600.82139,472.69009 604.43457,469.79954 604.43457,468.69434 604.43457,468.09922 604.0945,468.09922 603.96698,468.09922 603.28685,468.09922 602.30917,469.96958 599.97123,469.96958 599.80119,469.96958 598.2284,469.88456 598.2284,467.63164 598.2284,466.95151 599.20608,461.42547 599.58865,458.78997 599.8437,457.04714 599.71618,456.282 600.94891,456.282 601.88409,456.282 603.71193,456.49454 604.39206,456.49454 605.1572,456.49454 605.41225,456.23949 605.41225,455.26181 605.41225,454.75171 605.19971,454.45416 604.30704,454.45416 603.83945,454.45416 603.49939,454.49666 601.84158,454.49666 600.43881,454.49666 600.3538,454.45416 600.3538,454.19911 600.3538,453.56149 601.11894,451.56361 601.11894,451.01101 601.11894,450.62844 600.9064,450.50091 600.69386,450.50091 600.01373,450.50091 599.92872,451.05352 598.2284,452.83885 596.35805,454.79422 594.74274,454.75171 594.74274,455.60187 Z"/>
	<path d="M 606.85022,459.59762 C 606.85022,460.19274 607.19028,460.32026 607.36031,460.32026 607.57285,460.32026 607.70038,460.19274 607.8279,460.06521 608.08295,459.76766 608.42301,457.21718 610.16584,457.21718 610.93098,457.21718 611.61111,457.98232 611.61111,460.10772 611.61111,463.29582 609.78327,469.5445 609.78327,471.24482 609.78327,472.26501 610.63343,472.35002 611.05851,472.35002 L 611.27105,472.35002 C 612.80134,472.35002 612.71632,472.35002 613.6515,465.12366 L 613.86404,463.7209 C 614.07658,461.93556 615.13928,456.36702 617.05214,456.36702 618.58242,456.36702 618.41239,458.15235 619.34757,458.15235 620.11271,458.15235 620.19773,456.8346 620.28274,456.53705 620.41027,456.06946 620.75033,455.51686 620.75033,454.96425 620.75033,454.36914 620.28274,453.6465 619.17754,453.6465 616.03194,453.6465 613.90654,458.02483 613.60899,458.02483 613.52397,458.02483 613.48146,457.98232 612.41876,455.2193 612.16372,454.53917 611.73864,453.73152 610.84597,453.73152 610.4634,453.73152 606.85022,454.75171 606.85022,459.59762 Z"/>
	<path d="M 620.44148,467.33408 C 620.44148,470.0971 620.95158,472.81761 624.98984,472.81761 629.0281,472.81761 632.55626,467.71665 632.7688,467.71665 633.06636,467.71665 632.68379,472.47755 635.4043,472.47755 636.55202,472.47755 638.46488,470.52218 639.52758,468.99189 640.08018,468.22675 640.29272,467.58913 640.29272,467.16405 640.29272,466.99402 640.25021,466.69646 639.91015,466.69646 639.1025,466.69646 638.20983,469.45948 636.80706,469.45948 635.99941,469.45948 635.36179,468.05672 635.36179,466.95151 635.36179,465.3362 635.78687,463.38084 636.12694,461.51048 636.467,459.59762 636.72205,457.64226 637.10462,456.06946 637.40218,454.83673 637.95478,453.81654 637.95478,453.13641 637.95478,452.66882 637.74224,452.49879 637.48719,452.49879 636.63703,452.49879 636.12694,454.58168 635.27678,454.58168 633.87401,454.58168 632.98134,454.11409 631.6636,454.11409 630.55839,454.11409 629.70823,454.32663 628.56051,454.87924 626.30759,455.94194 624.35222,457.98232 622.82193,460.40528 621.50418,462.53068 620.44148,464.95363 620.44148,467.33408 Z M 623.41704,467.07903 C 623.41704,466.31389 623.50206,465.54874 623.62958,464.7836 624.01216,462.57318 625.03235,460.66032 626.26508,458.61994 627.54032,456.45203 629.79324,455.17679 631.53607,455.17679 632.42874,455.17679 634.3416,455.47435 634.3416,456.66457 634.3416,456.7921 633.19388,464.61357 632.17369,466.65395 631.79112,467.4191 629.79324,470.47967 626.73267,470.47967 624.94733,470.47967 623.41704,469.20443 623.41704,467.07903 Z"/>
	<path d="M 641.68751,458.53492 C 641.68751,459.00251 641.77253,459.34258 642.07008,459.34258 643.00526,459.34258 643.47285,456.96213 644.7906,456.96213 645.21568,456.96213 645.76828,457.81229 645.76828,459.30007 645.76828,462.57318 643.89793,469.16192 643.89793,470.94726 643.89793,472.17999 644.23799,472.26501 645.38571,472.26501 646.49092,472.26501 646.83098,472.09498 646.9585,471.1598 647.04352,470.56469 646.74596,471.07478 647.80866,465.3362 648.82886,459.85267 648.31876,460.23524 650.1466,457.64226 651.12429,456.23949 651.93194,455.7719 652.90962,455.7719 655.67264,455.7719 655.88518,458.57743 655.88518,459.25756 655.88518,460.83036 654.99252,466.52643 654.99252,469.75704 654.99252,471.24482 655.71515,472.43504 656.56531,472.43504 658.43566,472.43504 662.17637,469.45948 662.17637,467.80167 662.17637,467.54662 662.09135,467.29157 661.7938,467.29157 661.15618,467.29157 660.98614,467.80167 660.47605,468.43929 660.47605,468.43929 659.49836,469.37446 658.77573,469.37446 658.30814,469.37446 657.96808,469.0344 657.96808,467.84418 657.96808,466.3989 658.69071,461.89306 658.69071,458.9175 658.69071,456.23949 658.0956,453.604 655.12004,453.604 653.3347,453.604 651.08178,455.13428 649.93406,456.02695 648.36127,457.21718 648.06371,458.15235 647.80866,458.15235 647.42609,458.15235 648.31876,453.68901 645.8533,453.68901 644.23799,453.68901 641.68751,456.87711 641.68751,458.53492 Z"/>
	<path d="M 663.63825,469.88456 C 663.63825,472.13748 666.69882,472.69009 668.35663,472.69009 673.79766,472.69009 674.98788,468.65183 674.98788,467.12154 674.98788,464.2735 673.37258,463.08328 672.05483,461.5955 671.03464,460.49029 668.6967,458.74746 668.6967,457.13216 668.6967,455.85692 669.33432,454.87924 670.94962,454.87924 672.60743,454.87924 672.77747,457.25968 674.30775,457.25968 674.52029,457.25968 675.92306,457.13216 675.92306,455.81441 675.92306,454.1566 674.26525,453.604 671.96981,453.604 668.65419,453.604 666.18873,455.55936 666.18873,458.4074 666.18873,460.95788 667.80403,462.06309 669.50435,463.80592 671.03464,465.3362 672.4374,466.56894 672.4374,468.56681 672.4374,469.07691 672.13985,471.28732 669.03676,471.28732 666.44377,471.28732 667.16641,468.35427 664.9985,468.35427 664.48841,468.35427 663.63825,468.56681 663.63825,469.88456 Z"/>
	<path d="M 678.73788,468.5243 C 678.73788,472.52006 679.97062,472.52006 680.82078,472.52006 681.62843,472.52006 683.41376,471.6699 684.51897,470.39466 685.53916,469.20443 686.64437,467.75916 686.64437,467.33408 686.64437,466.909 686.43183,466.65395 686.13428,466.65395 685.02907,466.65395 684.60399,469.67202 682.26605,469.67202 681.71344,469.67202 681.58592,469.45948 681.58592,468.01421 681.58592,466.56894 682.09602,463.89093 682.81865,458.87499 684.17891,449.73577 683.45627,451.30856 685.02907,443.06201 685.15659,442.25436 685.45415,441.70176 685.45415,441.10665 685.45415,440.68157 685.24161,440.42652 684.56148,440.42652 683.45627,440.42652 682.5211,440.8516 679.41801,441.06414 678.86541,441.10665 678.78039,441.44671 678.78039,441.65925 678.78039,442.12684 679.16296,442.25436 680.01312,442.25436 680.52322,442.25436 680.60824,442.21185 681.24586,442.21185 681.88348,442.21185 682.30856,442.55192 682.30856,443.06201 682.30856,443.57211 681.67094,447.39783 680.9483,451.98869 680.52322,454.7092 680.31068,457.72727 679.92811,460.40528 679.84309,461.0854 678.73788,466.10135 678.73788,468.5243 Z"/>
	<path d="M 689.26791,467.33408 C 689.26791,470.0971 689.77801,472.81761 693.81627,472.81761 697.85453,472.81761 701.38269,467.71665 701.59523,467.71665 701.89279,467.71665 701.51021,472.47755 704.23073,472.47755 705.37844,472.47755 707.2913,470.52218 708.354,468.99189 708.90661,468.22675 709.11915,467.58913 709.11915,467.16405 709.11915,466.99402 709.07664,466.69646 708.73657,466.69646 707.92892,466.69646 707.03625,469.45948 705.63349,469.45948 704.82584,469.45948 704.18822,468.05672 704.18822,466.95151 704.18822,465.3362 704.6133,463.38084 704.95336,461.51048 705.29343,459.59762 705.54847,457.64226 705.93105,456.06946 706.2286,454.83673 706.78121,453.81654 706.78121,453.13641 706.78121,452.66882 706.56867,452.49879 706.31362,452.49879 705.46346,452.49879 704.95336,454.58168 704.1032,454.58168 702.70044,454.58168 701.80777,454.11409 700.49002,454.11409 699.38481,454.11409 698.53465,454.32663 697.38694,454.87924 695.13401,455.94194 693.17865,457.98232 691.64836,460.40528 690.33061,462.53068 689.26791,464.95363 689.26791,467.33408 Z M 692.24347,467.07903 C 692.24347,466.31389 692.32849,465.54874 692.45601,464.7836 692.83858,462.57318 693.85877,460.66032 695.09151,458.61994 696.36675,456.45203 698.61967,455.17679 700.3625,455.17679 701.25517,455.17679 703.16803,455.47435 703.16803,456.66457 703.16803,456.7921 702.02031,464.61357 701.00012,466.65395 700.61755,467.4191 698.61967,470.47967 695.55909,470.47967 693.77376,470.47967 692.24347,469.20443 692.24347,467.07903 Z"/>
	<path d="M 711.1416,455.60187 C 711.1416,456.7921 713.64957,455.85692 713.64957,456.74959 713.64957,457.8973 711.86423,464.7836 711.86423,468.69434 711.86423,472.00996 713.43703,472.69009 714.58475,472.69009 717.22024,472.69009 720.83342,469.79954 720.83342,468.69434 720.83342,468.09922 720.49336,468.09922 720.36583,468.09922 719.68571,468.09922 718.70802,469.96958 716.37008,469.96958 716.20005,469.96958 714.62725,469.88456 714.62725,467.63164 714.62725,466.95151 715.60494,461.42547 715.98751,458.78997 716.24256,457.04714 716.11503,456.282 717.34777,456.282 718.28294,456.282 720.11079,456.49454 720.79091,456.49454 721.55606,456.49454 721.81111,456.23949 721.81111,455.26181 721.81111,454.75171 721.59857,454.45416 720.7059,454.45416 720.23831,454.45416 719.89825,454.49666 718.24043,454.49666 716.83767,454.49666 716.75265,454.45416 716.75265,454.19911 716.75265,453.56149 717.5178,451.56361 717.5178,451.01101 717.5178,450.62844 717.30526,450.50091 717.09272,450.50091 716.41259,450.50091 716.32757,451.05352 714.62725,452.83885 712.7569,454.79422 711.1416,454.75171 711.1416,455.60187 Z"/>
	<path d="M 723.39054,465.93132 C 723.39054,469.71453 724.70829,472.69009 730.10681,472.69009 733.805,472.69009 737.5032,469.71453 737.5032,468.73684 737.5032,468.4818 737.33317,468.31176 736.9931,468.31176 736.52552,468.31176 734.8252,470.13961 732.40224,470.13961 728.19395,470.13961 726.28109,468.01421 726.28109,464.82611 726.28109,463.7209 726.40861,463.08328 727.00372,463.08328 730.99948,463.04077 733.29491,462.1056 733.67748,461.93556 734.48513,461.5955 737.80076,459.85267 737.80076,456.7921 737.80076,454.92174 736.10044,453.6465 734.10256,453.6465 731.72211,453.6465 729.76674,454.41165 728.19395,455.89943 725.2609,458.61994 723.39054,462.27563 723.39054,465.93132 Z M 726.8762,461.51048 C 726.8762,460.95788 727.85388,458.23737 729.12912,456.91962 730.23433,455.7719 731.55208,454.92174 732.61478,454.92174 733.33742,454.92174 734.8677,455.30432 734.8677,456.91962 734.8677,459.59762 731.38205,462.36064 727.25877,462.36064 726.96122,462.36064 726.8762,461.80804 726.8762,461.51048 Z"/>
	<path d="M 739.85575,466.86649 C 739.85575,470.05459 741.34353,472.52006 744.95671,472.52006 749.16501,472.52006 751.33291,467.75916 751.71549,467.75916 752.3106,467.75916 751.33291,472.52006 754.30847,472.52006 757.07149,472.52006 759.7495,468.22675 759.7495,467.33408 759.7495,467.16405 759.62197,466.95151 759.28191,466.95151 758.60178,466.95151 757.6241,469.587 755.75375,469.587 754.77606,469.587 754.64854,468.69434 754.64854,467.75916 754.64854,466.48392 755.07362,463.80592 755.54121,460.57531 757.92165,443.18954 758.34673,441.82928 758.34673,440.72407 758.34673,440.3415 758.04918,440.00144 757.66661,440.00144 756.51889,440.00144 756.77394,440.08645 754.39349,440.68157 753.20327,440.97912 751.71549,440.80909 751.71549,441.53173 751.71549,441.82928 751.97053,441.99931 752.39561,441.99931 752.43812,441.99931 753.41581,441.95681 753.88339,441.95681 754.52101,441.95681 755.11613,442.38189 755.11613,443.01951 755.11613,443.31706 753.71336,454.49666 753.58584,454.49666 752.39561,454.49666 751.54545,453.94406 750.44025,453.94406 745.38179,453.94406 739.85575,460.27775 739.85575,466.86649 Z M 742.83131,465.67627 C 742.83131,461.21293 746.31697,454.83673 750.22771,454.83673 751.37542,454.83673 753.07574,455.38933 753.07574,456.53705 753.07574,458.23737 752.43812,465.71878 750.7378,467.84418 749.63259,469.24694 747.97478,470.05459 746.44449,470.05459 743.85151,470.05459 742.83131,468.14173 742.83131,465.67627 Z"/>
	<path d="M 771.05796,469.16192 C 771.05796,471.62739 773.73596,472.7326 776.24393,472.7326 782.83267,472.7326 787.84862,465.12366 787.84862,459.34258 787.84862,456.57956 786.36084,453.94406 783.17274,453.94406 778.28432,453.94406 776.28644,457.8973 775.69133,457.8973 775.60631,457.8973 775.47879,457.55724 775.47879,457.25968 775.47879,454.19911 778.1993,441.53173 778.1993,440.76658 778.1993,440.29899 777.85924,440.00144 777.39165,440.00144 777.1366,440.00144 776.37146,440.25649 774.71365,440.46903 772.75828,440.72407 771.56805,440.68157 771.56805,441.53173 771.56805,442.12684 771.90812,442.12684 772.37571,442.12684 773.01333,442.12684 773.48091,442.04182 774.11853,442.04182 774.96869,442.04182 775.18123,442.33938 775.18123,442.55192 775.18123,443.57211 774.92619,445.05989 774.54361,446.88773 773.90599,450.03332 773.3959,454.1566 772.63075,458.57743 772.03564,462.02058 771.05796,466.44141 771.05796,469.16192 Z M 773.86349,468.65183 C 773.86349,468.22675 774.33107,463.67839 775.56381,460.32026 776.92406,456.62206 779.68708,456.19698 780.70727,456.19698 783.04521,456.19698 784.87306,458.15235 784.87306,460.5328 784.87306,465.42122 780.96232,471.54237 777.1366,471.54237 774.50111,471.54237 773.86349,470.0971 773.86349,468.65183 Z"/>
	<path d="M 789.4938,477.49349 C 789.4938,479.44886 791.19412,480.00146 793.02196,480.00146 797.01772,480.00146 799.73823,475.15555 801.7361,470.0971 804.24408,463.76341 805.26427,457.8973 805.26427,455.98444 805.26427,454.6667 804.54163,453.73152 803.60646,453.73152 802.58626,453.73152 802.16118,454.53917 802.16118,455.30432 802.16118,456.45203 803.22388,457.30219 803.22388,458.53492 803.22388,461.38296 802.28871,465.93132 801.6936,465.93132 801.22601,465.93132 797.18775,453.85904 793.06447,453.85904 790.47148,453.85904 789.62132,457.55724 789.62132,459.34258 789.62132,460.06521 789.79136,460.27775 790.0464,460.27775 791.32164,460.27775 790.42898,457.08965 792.89444,457.08965 795.14736,457.08965 799.82324,468.05672 799.82324,470.43716 799.82324,472.05247 797.01772,477.49349 794.55225,477.49349 792.59688,477.49349 792.55438,476.09073 790.85406,476.09073 790.13142,476.09073 789.4938,476.77086 789.4938,477.49349 Z"/>
</svg>
